<svg id="visual" viewBox="0 0 900 600" width="900" height="600" xmlns="http://www.w3.org/2000/svg" xmlns:xlink="http://www.w3.org/1999/xlink" version="1.1"><rect x="0" y="0" width="900" height="600" fill="#FFFFFF"></rect><defs><linearGradient id="grad1_0" x1="33.3%" y1="0%" x2="100%" y2="100%"><stop offset="20%" stop-color="#ffffff" stop-opacity="1"></stop><stop offset="80%" stop-color="#ffffff" stop-opacity="1"></stop></linearGradient></defs><defs><linearGradient id="grad2_0" x1="0%" y1="0%" x2="66.7%" y2="100%"><stop offset="20%" stop-color="#ffffff" stop-opacity="1"></stop><stop offset="80%" stop-color="#ffffff" stop-opacity="1"></stop></linearGradient></defs><g transform="translate(900, 0)"><path d="M0 378.6C-54 378.6 -108 378.6 -144.9 349.8C-181.7 320.9 -201.5 263.2 -221.3 221.3C-241.2 179.4 -261.1 153.3 -287.3 119C-313.6 84.8 -346.1 42.4 -378.6 0L0 0Z" fill="#CEDCC8"></path></g><g transform="translate(0, 600)"><path d="M0 -378.6C45.4 -360.7 90.9 -342.8 134.3 -324.3C177.8 -305.7 219.3 -286.5 257.4 -257.4C295.5 -228.3 330.1 -189.4 349.8 -144.9C369.4 -100.3 374 -50.2 378.6 0L0 0Z" fill="#CEDCC8"></path></g></svg>