<!--?xml version="1.0" standalone="no"?-->
              <svg id="sw-js-blob-svg" viewBox="0 0 100 100" xmlns="http://www.w3.org/2000/svg" version="1.1">
                    <defs> 
                        <linearGradient id="sw-gradient" x1="0" x2="1" y1="1" y2="0">
                            <stop id="stop1" stop-color="rgba(255, 255, 255, 1)" offset="0%"></stop>
                            <stop id="stop2" stop-color="rgba(225.772, 225.772, 225.772, 1)" offset="100%"></stop>
                        </linearGradient>
                    </defs>
                <path fill="url(#sw-gradient)" d="M26.7,-30.7C34.8,-25,41.8,-16.8,42.2,-8.4C42.5,0,36.2,8.6,30.6,17.1C25,25.6,20.2,33.9,13.1,37C6,40,-3.5,37.7,-12.3,34.3C-21.1,30.8,-29.4,26.3,-34.8,19C-40.3,11.8,-42.9,1.9,-41.7,-7.8C-40.6,-17.6,-35.7,-27.1,-28.1,-32.9C-20.5,-38.8,-10.2,-40.9,-0.5,-40.4C9.3,-39.8,18.6,-36.5,26.7,-30.7Z" width="100%" height="100%" transform="translate(50 50)" stroke-width="0" style="transition: all 0.3s ease 0s;" stroke="url(#sw-gradient)"></path>
              </svg>